<svg xmlns="http://www.w3.org/2000/svg" width="1em" height="1em" viewBox="0 0 24 24" fill="currentColor" class="iXbgaG nXkCf3 DlJ4rT _9l1hln _65i7kZ nXkCf3 fzejeK"><path d="M14.78 6.6c.53-.68.94-1.63.8-2.6-.88.06-1.9.6-2.5 1.32-.54.64-.99 1.6-.81 2.53.95.03 1.94-.53 2.5-1.25Zm4.72 9.14c-.38.83-.57 1.2-1.06 1.94-.69 1.03-1.65 2.3-2.86 2.32-1.06 0-1.34-.68-2.78-.68-1.45.01-1.75.69-2.82.68-1.2-.01-2.12-1.17-2.8-2.2-1.93-2.87-2.13-6.24-.94-8.03a4.27 4.27 0 0 1 3.42-2.02c1.27 0 2.07.68 3.12.68 1.02 0 1.64-.68 3.11-.68 1.12 0 2.3.6 3.14 1.62-2.76 1.48-2.31 5.34.47 6.37Z"></path></svg>