<svg xmlns="http://www.w3.org/2000/svg" width="1em" height="1em" viewBox="0 0 24 24" fill="none" class="iXbgaG nXkCf3 DlJ4rT _9l1hln _65i7kZ nXkCf3 fzejeK"><path d="M7.28 12c0-.52.08-1.02.24-1.48l-2.7-2.06a8 8 0 0 0 0 7.08l2.7-2.06A4.73 4.73 0 0 1 7.28 12Z" fill="#FBBC05"></path><path d="M12.01 7.27c1.13 0 2.15.4 2.95 1.06L17.3 6A7.98 7.98 0 0 0 4.82 8.46l2.7 2.05a4.72 4.72 0 0 1 4.5-3.24Z" fill="#FE584D"></path><path d="M12.01 16.73a4.72 4.72 0 0 1-4.5-3.24l-2.69 2.05a7.99 7.99 0 0 0 12.41 2.47l-2.56-1.98c-.72.45-1.63.7-2.66.7Z" fill="#34A853"></path><path d="M19.66 12c0-.47-.07-.98-.18-1.45H12v3.09h4.3a3.6 3.6 0 0 1-1.64 2.39L17.23 18a7.96 7.96 0 0 0 2.43-6Z" fill="#4285F4"></path></svg>